<?xml version="1.0" standalone="no"?>
<!DOCTYPE svg PUBLIC "-//W3C//DTD SVG 20010904//EN"
 "http://www.w3.org/TR/2001/REC-SVG-20010904/DTD/svg10.dtd">
<svg version="1.0" xmlns="http://www.w3.org/2000/svg"
 width="1275.000000pt" height="1275.000000pt" viewBox="0 0 1275.000000 1275.000000"
 preserveAspectRatio="xMidYMid meet">
<metadata>
Created by potrace 1.11, written by Peter Selinger 2001-2013
</metadata>
<g transform="translate(0.000000,1275.000000) scale(0.100000,-0.100000)"
fill="#000000" stroke="none">
<path d="M1584 12230 c-5 -5 -24 -10 -42 -12 -20 -1 -38 -10 -43 -20 -5 -10
-16 -18 -23 -18 -8 0 -19 -13 -26 -30 -7 -16 -17 -30 -22 -30 -11 0 -38 -26
-40 -37 -2 -20 -11 -32 -19 -27 -5 3 -9 0 -9 -6 0 -6 -16 -35 -35 -64 -19 -29
-35 -58 -35 -64 0 -6 -6 -15 -13 -19 -8 -4 -24 -34 -37 -65 -13 -31 -27 -55
-32 -52 -5 3 -7 2 -6 -3 1 -4 -4 -24 -11 -43 -8 -19 -15 -44 -18 -55 -2 -10
-7 -22 -11 -25 -9 -7 -29 -66 -37 -112 -4 -21 -11 -35 -16 -32 -5 3 -9 -3 -10
-13 0 -10 -2 -25 -4 -33 -2 -8 -6 -24 -8 -35 -15 -63 -21 -81 -28 -90 -4 -6
-11 -33 -14 -60 -3 -28 -7 -63 -9 -80 -2 -16 -7 -68 -11 -114 -3 -47 -10 -92
-15 -101 -6 -10 -5 -21 1 -27 6 -6 4 -19 -5 -38 -10 -18 -12 -33 -6 -40 20
-24 -2 -53 -59 -79 -32 -14 -66 -27 -77 -29 -72 -14 -93 -20 -89 -27 3 -4 -8
-10 -25 -13 -27 -6 -29 -9 -30 -54 0 -41 -5 -126 -9 -171 0 -7 -5 -10 -11 -7
-5 3 -12 -6 -16 -20 -3 -14 -10 -25 -15 -25 -5 0 -9 -7 -9 -15 0 -8 -4 -15
-10 -15 -5 0 -20 -18 -32 -40 -13 -22 -29 -40 -37 -40 -8 0 -12 -3 -8 -6 6 -6
3 -11 -38 -58 -14 -16 -28 -40 -32 -54 -4 -16 -8 -20 -13 -12 -6 9 -10 6 -15
-9 -3 -11 -11 -21 -16 -21 -5 0 -8 -4 -7 -9 2 -5 -6 -17 -18 -27 -12 -11 -24
-29 -28 -42 -4 -12 -12 -20 -17 -16 -5 3 -14 -8 -20 -25 -6 -17 -16 -31 -22
-31 -6 0 -8 -3 -4 -6 3 -3 -3 -16 -14 -27 -11 -12 -22 -32 -25 -44 -4 -13 -10
-23 -15 -23 -9 0 -39 -59 -43 -84 -1 -8 -5 -18 -8 -22 -4 -3 -4 -12 -1 -20 3
-9 0 -14 -8 -12 -9 2 -15 -7 -15 -22 -1 -14 -4 -38 -7 -53 -5 -24 -2 -30 24
-41 16 -7 26 -15 22 -19 -7 -8 24 -10 141 -10 56 0 81 4 87 14 6 10 9 10 9 2
0 -7 5 -13 11 -13 5 0 8 4 5 8 -3 5 35 17 84 27 60 12 87 21 83 29 -4 6 2 4
12 -4 10 -8 16 -10 12 -4 -4 8 11 14 46 19 28 5 54 9 57 10 3 1 20 6 38 10 17
4 32 10 32 14 0 3 29 15 64 25 36 11 63 23 61 27 -3 3 10 10 28 14 17 4 34 9
37 10 3 2 15 6 28 10 12 4 22 11 22 16 0 4 16 11 35 15 19 3 35 9 35 13 0 9
78 51 95 51 7 0 18 7 25 15 7 8 16 13 20 10 4 -3 10 2 14 10 3 8 12 15 21 15
8 0 25 10 38 23 12 12 24 22 27 22 3 0 27 22 53 48 26 27 47 43 47 35 1 -8 4
-7 11 4 5 9 16 15 24 12 8 -4 12 -10 9 -15 -3 -5 3 -9 13 -9 11 0 37 -18 58
-40 21 -22 45 -40 53 -40 7 0 11 -4 8 -9 -6 -9 31 -47 43 -44 3 1 5 -4 3 -11
-1 -7 13 -21 32 -31 19 -11 34 -24 33 -29 -3 -16 46 -8 56 9 4 8 13 15 19 15
16 0 98 82 98 98 0 7 4 10 10 7 5 -3 15 5 21 19 7 14 23 33 36 41 13 9 21 20
18 25 -3 5 5 16 17 25 13 8 23 19 24 23 2 18 31 72 36 67 3 -4 14 14 23 39 11
28 24 46 34 47 10 0 11 2 4 6 -9 3 -7 11 7 25 11 12 17 25 14 29 -2 4 0 10 6
14 5 3 10 13 10 22 0 9 7 21 15 27 8 6 16 23 19 38 4 26 3 27 -60 33 -38 5
-61 11 -58 17 4 6 -1 6 -13 -1 -12 -6 -24 -6 -29 -1 -5 5 -41 12 -79 16 -202
19 -250 28 -238 47 4 8 1 7 -9 -1 -10 -8 -19 -9 -22 -3 -3 5 -28 12 -55 16
l-50 7 6 46 c3 26 9 49 13 52 10 7 23 67 35 161 4 30 12 60 17 67 8 8 7 12 -3
12 -11 0 -11 2 -1 8 13 9 14 13 27 89 14 86 20 396 10 573 -9 176 -16 278 -21
315 -2 22 -5 47 -6 55 -1 8 -6 18 -11 22 -6 3 -12 15 -13 25 -2 10 -5 27 -8
38 -2 11 -5 23 -5 27 -1 4 -8 14 -17 22 -8 9 -11 16 -5 16 6 0 3 9 -7 20 -9
12 -17 26 -17 33 0 12 -4 13 -46 16 -11 0 -17 6 -14 11 8 13 2 13 -11 0z m40
-187 c0 -11 4 -19 9 -16 4 2 7 1 8 -4 0 -4 2 -17 5 -28 24 -110 16 -721 -10
-763 -2 -4 -1 -14 4 -22 6 -10 3 -21 -8 -34 -9 -11 -11 -16 -4 -12 15 9 17
-10 2 -19 -8 -5 -8 -11 0 -20 7 -8 7 -16 2 -19 -6 -3 -13 -20 -16 -38 -3 -18
-8 -44 -11 -58 -3 -13 -7 -42 -11 -65 -3 -22 -11 -43 -17 -47 -8 -5 -7 -8 3
-8 10 0 11 -3 4 -8 -10 -6 -19 -50 -30 -142 -2 -19 -6 -46 -9 -60 -17 -89 -17
-88 17 -99 32 -10 86 -22 120 -25 10 -1 20 -5 24 -8 3 -4 13 -4 22 -1 11 5 13
3 7 -8 -7 -11 -5 -11 10 1 11 9 16 10 11 3 -5 -9 0 -13 16 -12 19 0 56 -7 138
-26 8 -2 28 -4 43 -4 16 -1 26 -5 22 -10 -3 -6 3 -9 12 -9 47 2 129 -30 127
-49 -1 -7 -2 -14 -4 -15 -1 -2 -3 -14 -4 -26 -2 -13 -8 -27 -14 -31 -13 -8
-37 -63 -41 -92 0 -5 -6 -7 -11 -4 -6 4 -17 -10 -25 -29 -9 -20 -20 -36 -26
-36 -5 0 -15 -13 -20 -30 -6 -16 -15 -30 -20 -30 -5 0 -18 -14 -28 -30 -10
-17 -33 -42 -52 -55 -18 -14 -29 -25 -23 -26 5 0 -2 -4 -14 -10 -20 -7 -29 -4
-57 23 -19 17 -31 36 -28 41 4 6 0 8 -10 4 -10 -4 -22 1 -31 15 -8 11 -19 17
-24 14 -5 -3 -13 5 -16 18 -3 14 -15 28 -26 31 -11 3 -20 11 -20 16 0 10 -5
17 -51 68 -33 38 -43 35 -107 -34 -24 -26 -59 -53 -78 -61 -19 -8 -34 -18 -34
-22 0 -4 -20 -16 -45 -27 -25 -11 -45 -23 -45 -27 0 -7 -41 -23 -52 -20 -5 1
-8 -2 -8 -8 0 -5 -7 -10 -15 -10 -8 0 -15 -5 -15 -11 0 -5 -4 -7 -10 -4 -5 3
-10 2 -10 -4 0 -6 -18 -15 -40 -21 -22 -6 -40 -14 -40 -19 0 -4 -31 -18 -70
-30 -38 -13 -67 -27 -64 -32 3 -5 -2 -9 -10 -9 -25 0 -30 -2 -51 -16 -11 -8
-28 -14 -38 -14 -10 0 -16 -4 -13 -8 3 -5 -19 -15 -49 -22 -30 -7 -55 -17 -55
-21 0 -5 -7 -6 -15 -3 -8 4 -15 1 -15 -6 0 -6 -4 -9 -9 -5 -5 3 -12 1 -16 -5
-3 -5 -17 -10 -31 -10 -13 0 -24 -4 -24 -10 0 -5 -9 -10 -19 -10 -11 0 -23 -5
-27 -11 -3 -6 -15 -9 -25 -6 -11 3 -19 1 -19 -5 0 -5 -4 -6 -10 -3 -5 3 -10 2
-10 -2 0 -5 -40 -10 -90 -12 -84 -2 -90 -1 -90 18 0 11 6 26 13 33 13 12 32
71 25 75 -2 1 8 13 22 28 14 15 23 27 21 28 -10 4 25 47 39 48 9 0 10 3 3 5
-7 3 -2 14 13 29 13 13 24 32 24 42 0 14 2 15 9 5 6 -10 10 -6 15 14 4 15 15
35 24 44 22 20 42 56 42 74 0 8 5 18 12 22 7 4 8 3 4 -4 -4 -7 -5 -12 -2 -12
2 0 16 25 30 55 14 30 29 55 35 55 5 0 15 16 21 35 6 19 20 37 32 41 13 4 16
9 10 13 -8 5 -5 12 8 21 11 8 20 20 20 28 0 7 5 10 10 7 6 -3 10 1 10 9 0 9 5
16 11 16 6 0 9 6 6 13 -3 7 4 19 14 25 14 9 19 24 19 58 0 25 -4 43 -9 40 -4
-3 0 12 11 33 16 33 25 40 60 45 23 4 49 12 57 19 12 10 13 9 7 -1 -6 -11 -4
-11 10 -3 11 5 43 17 73 26 74 22 82 33 83 108 0 34 6 68 12 76 8 11 8 13 -1
7 -7 -4 -13 -3 -13 3 0 5 5 13 10 16 6 4 7 12 3 18 -11 18 -12 38 -2 31 5 -3
9 7 9 23 -1 32 6 124 14 168 2 17 8 55 11 85 4 30 13 58 19 62 7 5 6 8 -4 8
-11 0 -12 2 -2 8 7 5 14 17 17 28 21 90 28 113 41 143 9 18 18 41 19 50 2 9 4
17 5 19 2 1 3 5 5 10 1 4 5 21 10 37 4 17 13 33 18 37 6 3 12 17 14 30 2 13 8
25 13 26 6 2 8 7 5 12 -3 5 3 16 12 26 10 10 16 18 14 18 -2 1 6 20 17 42 12
23 18 45 14 49 -4 5 -2 5 5 1 8 -4 19 9 31 36 11 24 30 54 43 68 13 13 23 26
22 27 -7 8 -2 23 6 18 5 -3 12 4 16 15 4 11 18 28 33 38 14 9 37 28 51 42 l25
25 14 -35 c8 -19 15 -45 16 -57z"/>
<path d="M5567 10964 c-1 -1 -33 -4 -72 -8 -120 -9 -140 -13 -185 -34 -25 -11
-56 -23 -70 -27 -44 -13 -224 -111 -316 -171 -146 -95 -299 -224 -523 -441
-64 -61 -145 -137 -181 -170 -103 -93 -369 -360 -456 -457 -43 -49 -106 -117
-139 -151 -182 -189 -392 -410 -419 -442 -17 -21 -49 -58 -72 -83 -39 -44
-205 -253 -292 -368 -24 -31 -61 -75 -82 -97 -21 -22 -63 -74 -94 -115 -31
-41 -60 -79 -64 -85 -4 -5 -21 -31 -37 -57 -17 -27 -33 -48 -37 -48 -3 0 -27
-29 -52 -64 -25 -36 -52 -70 -58 -78 -35 -36 -308 -395 -308 -403 0 -3 -36
-54 -80 -114 -44 -61 -80 -115 -80 -121 0 -5 -4 -10 -9 -10 -5 0 -15 -15 -22
-32 -7 -18 -20 -40 -28 -48 -15 -16 -83 -115 -139 -203 -62 -99 -115 -182
-159 -250 -24 -37 -47 -75 -50 -85 -7 -17 -135 -228 -150 -247 -5 -5 -17 -28
-27 -50 -10 -22 -33 -62 -51 -90 -61 -95 -97 -167 -89 -175 5 -4 41 -24 79
-44 39 -21 84 -45 100 -55 17 -10 54 -32 83 -49 l52 -32 30 42 c17 22 30 44
30 48 0 4 11 20 25 36 14 16 25 32 25 36 0 4 32 58 71 120 39 62 83 132 98
156 14 24 45 72 68 107 23 36 52 84 65 107 13 24 29 49 36 57 7 7 24 36 39 64
26 52 73 128 84 137 3 3 13 19 22 36 25 48 96 134 112 134 7 0 26 -17 42 -39
45 -63 244 -201 291 -201 6 0 12 -4 12 -10 0 -5 3 -9 8 -8 4 1 52 -19 107 -46
55 -26 110 -50 122 -52 12 -2 35 -9 50 -16 36 -14 31 -13 78 -23 22 -4 47 -11
55 -15 8 -5 29 -10 45 -13 17 -3 64 -13 105 -22 41 -9 83 -18 93 -20 10 -2 26
-6 35 -9 24 -7 88 -16 152 -21 92 -8 154 -15 175 -19 60 -12 184 -26 285 -32
113 -7 159 -8 310 -4 41 0 134 0 207 0 73 -1 149 1 170 4 21 3 63 8 93 11 30
4 73 10 95 15 22 5 60 10 85 11 25 1 52 6 60 10 13 6 94 14 240 25 25 2 45 4
45 5 0 2 22 4 120 13 92 8 144 15 164 22 8 2 30 7 50 10 20 3 47 8 61 10 14 3
36 7 50 9 14 2 34 6 45 9 11 3 62 16 113 30 l92 24 -72 -82 c-40 -44 -88 -97
-108 -117 -206 -212 -428 -461 -433 -486 -1 -4 43 -8 98 -10 55 -1 109 -4 120
-6 11 -3 43 -8 70 -11 72 -10 192 -42 250 -67 28 -12 66 -29 85 -37 33 -14 73
-43 144 -106 16 -14 25 -26 21 -26 -5 0 0 -7 11 -16 10 -8 13 -13 7 -9 -17 8
-16 0 1 -18 23 -23 26 -98 5 -120 -10 -12 -25 -17 -34 -13 -9 3 -14 2 -11 -2
6 -10 -24 -25 -209 -104 -77 -33 -173 -75 -213 -94 -40 -19 -74 -34 -77 -34
-7 0 -160 -74 -165 -80 -3 -3 -36 -19 -75 -35 -38 -15 -115 -51 -170 -78 -55
-27 -127 -59 -160 -72 -33 -12 -125 -54 -205 -93 -80 -38 -197 -93 -260 -121
-63 -28 -122 -56 -130 -61 -8 -6 -49 -28 -90 -50 -113 -62 -134 -74 -142 -85
-4 -5 -8 -6 -8 -2 0 9 -143 -63 -148 -75 -2 -5 -8 -6 -13 -2 -5 3 -9 0 -9 -6
0 -7 -6 -10 -14 -7 -8 3 -16 2 -18 -3 -2 -6 -287 -174 -433 -255 -22 -12 -61
-36 -87 -54 -26 -18 -52 -29 -58 -26 -6 4 -9 3 -8 -2 2 -4 1 -8 -2 -9 -3 0
-17 -11 -31 -25 -15 -13 -52 -37 -83 -53 -31 -16 -56 -33 -56 -38 0 -4 -6 -8
-12 -8 -7 0 -24 -12 -37 -25 -13 -14 -29 -25 -37 -25 -8 0 -14 -4 -14 -9 0 -5
-37 -33 -82 -62 -46 -30 -85 -56 -88 -60 -3 -3 -49 -41 -103 -83 -55 -42 -106
-83 -114 -91 -8 -9 -31 -27 -51 -42 -21 -15 -58 -45 -84 -68 -25 -22 -52 -45
-60 -51 -35 -29 -134 -147 -156 -186 -13 -23 -32 -52 -42 -63 -41 -46 -73
-214 -55 -295 8 -39 41 -107 60 -126 6 -7 26 -34 43 -61 36 -55 142 -145 213
-179 41 -20 153 -62 184 -68 6 -2 30 -8 55 -15 24 -7 58 -14 75 -16 16 -2 30
-4 30 -5 0 -1 16 -3 35 -5 19 -2 55 -6 80 -9 102 -13 289 -17 345 -7 103 18
356 71 440 93 44 11 85 21 90 22 31 7 114 36 140 49 17 9 104 43 195 77 91 33
194 75 230 91 36 17 106 49 155 72 50 22 108 50 130 62 22 12 81 43 130 70
199 105 298 169 421 270 34 27 108 84 165 125 274 199 434 368 589 625 57 94
107 172 112 173 4 2 8 8 8 13 0 9 55 125 100 209 13 25 25 50 26 55 6 22 76
200 90 227 8 15 12 28 10 28 -3 0 4 26 15 57 22 64 26 81 39 168 5 33 16 94
23 135 8 45 12 140 11 235 -1 88 0 168 3 177 2 10 21 25 41 34 84 38 121 53
202 84 47 17 106 41 132 51 26 10 51 19 57 19 6 0 34 11 63 24 29 13 67 26 83
29 17 2 47 12 69 21 21 9 48 18 60 21 11 2 80 25 151 50 72 24 137 42 145 39
8 -3 11 -2 7 2 -4 4 50 25 120 46 185 56 218 67 250 79 15 7 34 13 40 15 12 2
76 26 220 80 34 13 66 24 71 24 5 0 65 18 133 40 68 23 210 65 314 95 105 31
201 60 215 66 14 6 39 13 55 16 17 3 35 8 40 13 6 4 42 17 80 28 39 11 138 44
220 72 83 28 158 53 169 55 10 2 24 9 30 15 7 5 48 19 92 30 89 24 93 25 114
33 8 3 33 9 55 13 43 8 43 8 65 17 8 3 42 14 75 26 33 11 90 31 128 45 37 14
67 24 67 21 0 -2 21 5 46 15 25 11 60 22 77 26 17 3 37 10 44 16 7 6 13 8 13
5 0 -3 16 1 36 9 20 8 77 26 127 39 51 14 205 63 342 110 138 47 259 88 271
90 33 7 203 61 269 85 118 43 232 79 325 106 52 14 142 42 200 61 58 19 110
36 115 38 9 2 22 7 93 37 15 6 31 10 35 9 8 -1 4 19 -14 67 -5 12 -12 22 -17
22 -12 0 -186 -51 -357 -105 -77 -24 -165 -50 -195 -58 -76 -20 -366 -112
-667 -212 -138 -46 -287 -93 -330 -104 -44 -11 -96 -27 -116 -36 -20 -8 -61
-22 -89 -29 -29 -8 -98 -28 -153 -44 -55 -17 -124 -35 -154 -41 -30 -6 -125
-36 -210 -66 -86 -31 -226 -76 -311 -101 -85 -25 -211 -63 -280 -84 -69 -22
-177 -55 -240 -74 -95 -29 -355 -117 -410 -139 -8 -4 -69 -22 -135 -42 -288
-86 -511 -156 -527 -165 -10 -6 -26 -10 -36 -10 -10 0 -22 -3 -26 -7 -4 -5
-11 -8 -14 -9 -4 0 -14 -3 -22 -7 -8 -3 -46 -15 -85 -27 -191 -58 -579 -187
-650 -216 -76 -31 -192 -72 -370 -132 -44 -15 -82 -29 -85 -33 -3 -3 -27 -13
-55 -24 -27 -10 -53 -22 -56 -28 -6 -9 -59 52 -59 68 0 20 -104 137 -114 128
-3 -4 -6 -2 -6 3 0 6 -25 39 -55 74 -30 36 -55 68 -55 71 0 4 23 35 51 70 51
64 122 134 428 427 283 270 647 638 856 867 55 60 114 123 130 141 58 60 107
119 121 147 34 63 12 128 -53 163 -23 12 -39 25 -36 28 4 3 1 7 -5 7 -7 1 -15
3 -19 4 -5 2 -18 6 -30 10 -13 4 -21 11 -18 15 3 5 -4 6 -15 3 -11 -3 -20 0
-20 6 0 5 -7 8 -15 5 -8 -4 -22 -1 -30 6 -8 7 -15 10 -15 7 0 -3 -17 -1 -37 4
-42 10 -97 18 -158 24 -22 2 -76 7 -120 11 -101 10 -351 11 -431 2 -34 -4
-120 -19 -190 -34 -71 -15 -139 -28 -151 -28 -13 -1 -23 -4 -23 -7 0 -3 -22
-9 -49 -12 -44 -5 -181 -49 -324 -104 -52 -19 -71 -40 -57 -63 7 -12 20 -10
77 8 37 12 124 36 193 52 69 17 136 35 150 40 14 5 41 12 60 15 19 3 52 10 72
16 21 5 66 12 100 15 35 3 74 8 88 11 38 8 562 13 574 5 6 -3 18 -7 26 -7 42
0 4 -51 -95 -125 -26 -19 -64 -48 -84 -65 -20 -16 -55 -44 -77 -62 -21 -18
-68 -55 -104 -83 -85 -66 -204 -167 -285 -242 -16 -15 -33 -28 -36 -28 -3 0
-20 -12 -37 -27 -17 -16 -49 -44 -72 -63 -23 -19 -52 -44 -64 -55 -11 -11 -39
-34 -61 -50 -21 -17 -47 -37 -56 -45 -62 -57 -131 -102 -222 -145 -84 -40
-277 -101 -277 -88 0 3 -6 1 -12 -5 -7 -5 -33 -13 -58 -17 -25 -4 -92 -18
-149 -30 -57 -13 -109 -21 -117 -18 -8 3 -14 1 -14 -5 0 -9 -61 -20 -145 -27
-16 -2 -38 -6 -47 -10 -10 -4 -24 -5 -32 -2 -8 3 -17 3 -20 -1 -4 -3 -21 -7
-39 -8 -18 -2 -45 -5 -62 -8 -28 -5 -57 -8 -240 -22 -38 -3 -86 -7 -105 -8
-177 -17 -710 -28 -710 -15 0 3 -26 5 -57 4 -32 0 -87 3 -123 7 -98 11 -151
18 -190 23 -19 2 -71 7 -115 10 -44 4 -100 11 -125 17 -25 5 -61 12 -80 15
-33 4 -239 52 -338 77 -12 3 -30 8 -40 10 -9 2 -43 14 -74 26 -32 12 -61 21
-64 20 -4 -1 -10 4 -15 11 -7 11 -18 15 -66 21 -7 1 -13 8 -13 17 0 14 -2 14
-10 1 -6 -10 -10 -11 -10 -3 0 7 -11 15 -25 19 -14 4 -24 8 -22 11 3 2 -18 27
-47 54 -49 48 -50 50 -32 64 11 8 26 15 34 15 24 0 313 129 377 168 90 56 99
61 115 68 64 32 173 149 217 231 101 191 73 326 -76 365 -127 33 -328 29 -434
-8 -71 -25 -87 -13 -42 32 14 14 25 27 25 31 0 3 23 35 51 70 66 85 73 93 145
177 33 39 71 87 84 106 13 19 42 54 64 78 23 23 45 51 51 61 5 10 34 45 62 78
29 33 63 73 75 89 12 16 25 31 28 34 3 3 28 32 55 65 64 77 175 207 225 265
22 25 49 59 62 75 23 32 147 175 182 211 12 12 68 72 126 134 149 161 323 335
407 409 67 59 85 74 138 119 11 10 58 49 104 87 47 39 94 79 106 90 11 11 54
49 94 85 41 36 79 70 85 75 6 6 45 38 86 70 41 33 77 63 80 66 3 4 37 27 75
51 227 146 387 190 512 143 71 -27 129 -93 137 -155 3 -19 10 -66 16 -103 6
-37 7 -73 4 -79 -4 -6 -3 -8 4 -4 11 7 60 128 69 172 11 57 7 169 -7 194 -8
14 -15 31 -16 37 -1 7 -16 31 -33 52 -53 67 -157 115 -278 130 -35 4 -64 6
-66 5z m539 -5503 c-8 -105 -40 -249 -71 -327 -14 -35 -28 -78 -32 -96 -3 -18
-22 -67 -41 -108 -19 -41 -47 -103 -63 -138 -16 -34 -40 -77 -54 -96 -14 -18
-25 -39 -25 -47 0 -13 -16 -42 -119 -216 -17 -29 -43 -65 -59 -80 -15 -16 -34
-40 -42 -55 -14 -25 -164 -192 -236 -262 -80 -79 -207 -186 -221 -186 -4 0
-28 -18 -53 -41 -24 -22 -57 -47 -73 -55 -15 -8 -36 -21 -45 -29 -9 -8 -35
-28 -57 -44 -22 -17 -45 -35 -52 -41 -6 -5 -31 -20 -55 -32 -24 -12 -63 -36
-88 -54 -25 -17 -74 -46 -110 -65 -36 -18 -67 -36 -70 -40 -3 -3 -54 -30 -115
-59 -60 -28 -155 -73 -210 -100 -55 -27 -131 -61 -170 -75 -38 -15 -97 -41
-130 -58 -33 -17 -63 -31 -67 -32 -3 0 -10 -3 -14 -8 -4 -4 -14 -7 -23 -7 -9
0 -28 -6 -43 -14 -22 -12 -87 -27 -115 -28 -5 0 -15 -4 -23 -8 -8 -4 -31 -10
-50 -14 -19 -3 -55 -12 -80 -21 -25 -9 -52 -18 -61 -20 -8 -2 -40 -10 -70 -19
-30 -9 -70 -19 -89 -22 -19 -3 -42 -8 -50 -11 -8 -3 -26 -8 -40 -10 -14 -2
-47 -8 -75 -12 -27 -5 -59 -10 -70 -10 -21 0 -199 0 -225 1 -39 1 -229 54
-240 67 -3 3 -21 17 -40 31 -49 34 -90 72 -90 82 0 5 -6 16 -14 24 -8 7 -22
37 -31 65 -20 60 -14 146 13 175 9 11 35 42 56 69 48 60 47 60 161 159 50 43
95 84 100 90 19 21 160 142 229 196 84 66 190 141 351 249 66 44 125 84 130
89 6 4 17 11 25 15 16 7 53 29 186 109 76 45 181 104 234 130 14 7 63 35 110
62 47 27 117 65 155 86 39 20 131 70 205 110 151 82 158 86 395 201 94 45 229
111 300 146 72 36 153 73 180 83 42 15 101 40 210 90 11 6 85 36 165 69 269
110 345 141 370 155 59 33 123 66 127 66 3 0 2 -36 -1 -79z"/>
<path d="M10196 10233 c-3 -3 -37 -7 -76 -9 -41 -1 -77 -8 -87 -15 -9 -8 -14
-9 -10 -3 3 6 0 11 -8 11 -8 0 -12 -4 -9 -9 3 -4 -14 -9 -38 -9 -107 -3 -162
-10 -168 -20 -4 -6 -9 -10 -11 -9 -13 5 -108 -14 -103 -21 2 -4 -18 -11 -45
-15 -28 -4 -48 -10 -46 -14 5 -8 -52 -26 -68 -22 -5 2 -6 -2 -2 -8 3 -5 -1
-11 -9 -11 -9 -1 -20 -3 -26 -4 -5 -1 -22 -3 -37 -4 -25 -2 -25 -3 -8 -10 16
-7 13 -9 -18 -15 -20 -4 -37 -12 -37 -19 0 -8 -3 -8 -9 1 -7 11 -9 11 -14 -2
-4 -9 -16 -16 -27 -16 -12 0 -18 -4 -15 -10 3 -5 -1 -10 -9 -10 -19 0 -107
-46 -100 -53 3 -2 -7 -8 -21 -11 -15 -4 -39 -18 -53 -31 -15 -14 -30 -25 -34
-25 -5 0 -8 -7 -8 -15 0 -8 -9 -15 -20 -15 -11 0 -19 -4 -17 -9 1 -5 -12 -22
-30 -39 -17 -17 -29 -33 -25 -36 3 -3 -3 -6 -13 -6 -10 0 -16 -3 -12 -6 8 -8
-25 -44 -40 -44 -7 0 -13 -5 -13 -11 0 -7 -16 -27 -35 -46 -19 -19 -35 -42
-35 -51 0 -14 -2 -15 -9 -3 -8 12 -11 9 -16 -12 -4 -15 -14 -27 -22 -27 -8 0
-12 -4 -9 -9 4 -5 -8 -23 -25 -40 -17 -17 -27 -31 -22 -31 4 0 0 -5 -10 -11
-9 -6 -15 -14 -12 -19 3 -4 -2 -10 -10 -14 -8 -3 -17 -1 -20 5 -4 5 -12 6 -18
2 -6 -4 -166 -7 -354 -7 -294 -1 -345 -3 -353 -16 -7 -10 -10 -11 -10 -2 0 6
-5 12 -11 12 -5 0 -7 -4 -4 -10 3 -5 1 -10 -4 -10 -6 0 -11 6 -11 13 0 9 -2 9
-8 0 -4 -6 -26 -13 -50 -16 -23 -2 -48 -9 -54 -15 -7 -7 -20 -12 -31 -12 -10
0 -15 -4 -12 -10 3 -5 -3 -10 -14 -10 -11 0 -23 -5 -26 -10 -4 -6 -11 -8 -16
-5 -5 4 -9 2 -9 -4 0 -5 -9 -13 -20 -16 -11 -4 -18 -11 -15 -16 4 -5 -4 -13
-17 -18 -13 -6 -19 -10 -15 -10 5 -1 -12 -21 -37 -46 -26 -25 -41 -45 -34 -45
6 0 3 -6 -7 -14 -18 -13 -15 -53 4 -42 5 4 11 1 13 -4 2 -6 17 -13 33 -16 16
-3 32 -9 35 -13 3 -5 22 -11 43 -15 20 -4 37 -12 37 -18 0 -6 7 -5 17 3 11 9
14 10 9 2 -5 -9 0 -13 16 -12 13 0 48 -2 78 -6 30 -4 60 -8 67 -8 7 0 10 -4 7
-9 -3 -4 3 -8 13 -9 10 0 27 -3 38 -5 11 -2 29 -5 40 -6 11 -1 26 -6 33 -11
12 -9 40 -16 80 -19 6 -1 12 -5 12 -9 0 -7 48 -17 102 -22 14 -1 24 -6 20 -11
-3 -5 2 -7 10 -3 9 3 21 0 27 -6 6 -6 11 -8 11 -4 0 3 21 -4 47 -18 26 -13 52
-21 57 -18 5 3 6 2 3 -3 -10 -16 8 -34 39 -40 16 -3 33 -12 37 -20 5 -8 12
-12 18 -9 5 4 12 -1 15 -9 3 -9 10 -13 15 -10 5 3 9 0 9 -5 0 -6 6 -11 14 -11
8 0 17 -7 20 -16 3 -8 10 -12 16 -9 5 3 10 2 10 -4 0 -6 11 -16 24 -23 14 -7
25 -17 25 -23 1 -5 6 -10 12 -10 6 0 16 -8 23 -17 7 -10 16 -18 20 -18 4 0 21
-15 38 -32 17 -18 27 -26 23 -18 -4 8 4 3 19 -12 15 -16 32 -28 39 -28 7 0 6
-4 -3 -10 -13 -8 -12 -10 3 -10 10 0 20 -7 23 -15 4 -8 12 -15 20 -15 8 0 14
-8 15 -17 0 -10 3 -13 6 -6 3 8 12 4 27 -12 13 -14 28 -25 35 -25 6 0 16 -9
23 -20 7 -11 17 -20 23 -20 5 -1 21 -14 35 -30 13 -17 30 -30 38 -30 7 0 10
-5 7 -10 -3 -6 7 -18 24 -28 17 -9 31 -20 31 -24 0 -5 9 -8 20 -8 11 0 20 5
20 10 0 6 7 10 15 10 8 0 15 5 15 11 0 5 4 8 9 4 5 -3 13 4 16 16 4 11 9 18
12 15 3 -3 16 6 29 19 13 14 28 25 34 25 6 0 9 4 5 9 -3 5 4 12 15 16 11 3 20
10 20 15 0 5 9 11 20 15 11 3 19 11 17 18 -1 6 3 11 9 12 6 0 18 8 28 18 10 9
22 17 27 17 6 0 7 5 4 10 -6 9 8 15 29 11 5 -1 6 5 3 14 -4 8 -2 15 2 15 5 0
8 8 6 18 -1 9 -8 16 -14 14 -6 -1 -11 5 -11 13 0 8 -4 15 -10 15 -5 0 -10 7
-10 15 0 8 -5 15 -11 15 -11 0 -59 46 -59 56 0 2 -9 13 -20 24 -12 12 -18 25
-15 30 4 6 1 10 -4 10 -19 0 -12 44 15 100 14 30 28 69 31 88 4 20 9 29 13 21
5 -7 11 5 15 30 4 22 11 41 16 41 5 0 9 5 9 11 0 6 12 25 26 44 14 18 26 43
27 54 1 12 5 21 9 21 4 0 14 16 22 35 8 19 20 35 25 35 6 0 10 3 10 8 -3 20 2
33 11 27 6 -4 10 -3 9 2 -1 4 1 21 6 36 6 21 10 25 16 15 7 -10 9 -9 10 5 3
30 4 32 26 56 12 13 20 27 18 31 -3 5 2 10 10 14 8 3 15 12 15 21 0 8 6 15 13
15 7 0 13 10 14 22 1 12 9 26 18 30 8 5 15 16 15 24 0 8 4 13 9 9 9 -5 27 32
23 48 -1 5 2 6 8 2 6 -3 14 4 19 17 6 13 10 17 11 8 0 -8 7 0 15 18 8 17 19
32 25 32 6 0 9 4 5 9 -3 5 4 12 15 16 11 3 19 9 19 13 -1 4 -1 16 0 27 1 15 3
17 10 6 7 -11 10 -9 16 9 4 13 19 34 34 48 14 13 25 29 23 34 -1 5 2 6 8 3 7
-4 14 2 17 14 3 11 9 19 13 16 5 -3 11 4 15 15 3 11 12 19 18 17 7 -1 11 4 10
11 -2 6 4 12 12 12 8 0 15 9 15 20 0 11 4 19 8 18 15 -5 152 143 152 164 0 10
5 16 10 13 6 -3 10 3 10 14 0 12 5 21 12 21 23 0 -10 23 -34 24 -13 1 -28 5
-34 9 -6 3 -14 4 -18 0z m-189 -177 c-3 -6 -10 -10 -16 -8 -6 1 -11 -5 -11
-13 0 -8 -4 -15 -10 -15 -5 0 -10 -5 -10 -10 0 -6 -12 -23 -27 -38 -36 -36
-73 -88 -73 -102 0 -6 -7 -13 -15 -16 -8 -4 -15 -14 -15 -23 0 -12 -2 -13 -9
-3 -6 10 -10 8 -14 -8 -4 -14 -10 -19 -18 -14 -8 4 -10 3 -5 -4 4 -7 2 -12 -3
-12 -6 0 -11 -7 -11 -16 0 -8 -4 -12 -10 -9 -9 6 -14 -8 -11 -27 0 -5 -5 -8
-13 -8 -7 0 -16 -9 -19 -21 -3 -12 -10 -18 -16 -15 -9 6 -27 -31 -23 -47 1 -5
-2 -5 -8 -2 -7 4 -14 -2 -17 -13 -3 -11 -11 -23 -19 -26 -8 -3 -14 -16 -14
-28 0 -17 -3 -19 -9 -9 -7 10 -11 5 -16 -18 -3 -17 -10 -31 -15 -31 -5 0 -12
-9 -15 -20 -4 -11 -11 -18 -16 -15 -5 4 -9 -1 -9 -10 0 -8 -7 -18 -16 -22 -13
-5 -13 -7 -2 -14 10 -7 9 -9 -5 -9 -11 0 -17 -6 -15 -17 2 -10 -3 -17 -9 -15
-12 2 -18 -18 -14 -41 1 -5 -3 -6 -8 -2 -6 3 -13 -6 -17 -20 -3 -14 -10 -25
-14 -25 -5 0 -12 -9 -15 -20 -4 -11 -17 -32 -31 -47 -13 -14 -21 -29 -18 -34
3 -5 0 -9 -5 -9 -6 0 -11 -9 -11 -20 0 -11 -4 -20 -10 -20 -5 0 -12 -11 -16
-25 -3 -14 -10 -25 -14 -25 -4 0 -11 -12 -15 -27 -3 -15 -15 -39 -26 -55 -11
-15 -17 -28 -12 -28 4 0 2 -4 -5 -8 -29 -19 -29 -232 0 -232 4 0 8 -9 8 -19 0
-10 22 -40 49 -67 33 -32 47 -53 44 -66 -3 -10 -9 -16 -13 -13 -4 3 -11 -7
-14 -20 -4 -14 -11 -23 -16 -20 -5 3 -11 -4 -15 -15 -3 -11 -10 -20 -15 -20
-5 0 -12 -9 -15 -20 -4 -11 -10 -18 -15 -15 -4 3 -10 -4 -13 -15 -3 -11 -9
-19 -14 -18 -4 2 -9 -1 -10 -7 -1 -5 -11 -13 -23 -17 -12 -4 -18 -12 -15 -18
4 -6 -5 -10 -20 -10 -15 0 -24 4 -20 10 3 6 0 10 -7 10 -8 0 -21 9 -31 20 -10
12 -22 18 -27 15 -6 -3 -10 1 -10 9 0 9 -4 16 -8 16 -11 0 -49 29 -81 61 -14
14 -34 28 -44 32 -9 3 -16 12 -15 19 2 7 -3 12 -9 13 -7 0 -13 4 -12 10 0 5
-9 13 -21 17 -12 4 -19 11 -16 16 2 4 -9 17 -25 27 -16 11 -29 25 -29 32 0 6
-9 15 -20 18 -11 3 -20 13 -20 21 0 8 -4 12 -10 9 -5 -3 -10 1 -10 9 0 9 -6
16 -14 16 -8 0 -18 9 -21 20 -4 11 -11 18 -16 15 -5 -4 -9 1 -9 9 0 8 -9 17
-20 21 -11 3 -19 9 -19 13 3 17 -2 35 -7 29 -3 -3 -17 4 -30 16 -41 39 -52 46
-78 53 -14 3 -26 10 -26 14 0 11 -51 37 -90 45 -16 4 -30 10 -30 15 0 6 -49
21 -66 19 -4 0 -10 4 -13 9 -5 8 -65 22 -108 25 -7 0 -13 3 -13 7 0 4 -6 7
-12 7 -18 1 -109 14 -138 19 -41 9 -71 13 -134 18 -32 2 -62 10 -66 16 -4 6
-32 11 -64 12 -31 1 -60 6 -62 10 -9 14 7 48 21 48 7 0 20 6 27 14 8 7 24 17
36 20 12 4 20 12 17 17 -4 5 0 9 7 10 7 0 22 2 33 5 11 2 31 5 45 6 14 1 30 5
35 8 14 9 49 10 472 13 205 1 373 6 373 10 0 5 5 5 12 1 6 -4 8 -3 5 3 -4 5 3
20 13 31 11 12 25 33 30 47 5 14 17 25 25 25 9 0 13 5 10 10 -3 6 1 13 9 16 9
3 16 12 16 20 0 8 7 14 16 14 8 0 13 4 9 9 -3 6 26 41 64 80 38 38 67 72 64
74 -2 3 5 8 18 12 17 6 19 9 8 16 -11 7 -10 9 4 9 9 0 25 9 34 19 9 11 20 18
25 15 4 -3 8 -1 8 4 0 14 97 82 116 82 11 0 14 5 10 16 -5 14 -4 15 8 5 11 -9
15 -8 20 4 3 9 10 13 16 10 6 -3 13 1 16 9 3 9 15 16 26 16 10 0 16 5 13 10
-3 6 3 10 13 10 11 0 25 6 31 14 7 8 30 17 52 21 24 4 37 11 32 18 -4 6 0 8
10 4 10 -4 17 -1 17 5 0 6 3 8 7 5 3 -4 16 -1 29 7 22 15 57 24 104 25 18 1
21 4 12 10 -9 5 0 10 27 15 23 3 41 12 41 19 0 9 3 8 9 -2 6 -9 10 -10 12 -2
3 7 36 15 79 18 41 3 76 9 78 13 5 12 83 8 79 -4z"/>
<path d="M9886 4669 c-25 -28 -46 -60 -46 -70 0 -31 -29 -91 -40 -84 -5 3 -17
21 -25 39 -51 106 -112 97 -131 -20 -3 -21 -11 -48 -17 -59 -6 -11 -10 -22
-10 -25 1 -11 -39 -90 -52 -100 -9 -8 -19 -2 -38 22 -38 50 -67 78 -79 78 -21
0 -74 -67 -87 -111 -7 -24 -23 -71 -34 -103 -18 -51 -22 -57 -31 -41 -22 36
-68 85 -82 85 -14 0 -54 -78 -54 -105 0 -7 -4 -15 -9 -17 -4 -1 -21 -13 -37
-26 -16 -13 -69 -50 -119 -83 -49 -33 -128 -86 -174 -117 -46 -31 -91 -61 -99
-67 -18 -12 -50 -36 -66 -50 -6 -6 -54 -45 -106 -86 -52 -42 -120 -101 -152
-130 -31 -30 -69 -66 -85 -80 -15 -14 -48 -48 -72 -75 -24 -27 -69 -77 -101
-111 -32 -33 -77 -91 -100 -127 -38 -59 -50 -70 -116 -101 -40 -19 -76 -35
-80 -35 -4 0 -15 -6 -23 -13 -20 -16 -62 -30 -188 -62 -56 -14 -117 -32 -136
-40 -19 -8 -50 -17 -68 -20 -19 -3 -41 -8 -49 -10 -29 -8 -85 -17 -135 -21
-27 -2 -61 -6 -75 -9 -14 -4 -39 -8 -56 -9 -17 -2 -35 -6 -40 -9 -5 -3 -54
-15 -109 -26 -54 -12 -100 -23 -101 -24 -19 -26 -94 -229 -94 -256 0 -15 -5
-32 -12 -39 -7 -7 -8 -12 -4 -12 5 0 1 -11 -8 -24 -8 -14 -22 -43 -30 -65
l-13 -40 56 5 c53 4 82 8 141 19 14 2 43 7 65 10 38 5 85 13 130 21 11 3 71
13 134 25 63 11 118 22 122 25 5 3 21 7 36 9 16 3 70 17 120 32 51 14 95 24
98 21 3 -3 -1 -20 -9 -39 -8 -19 -17 -47 -20 -64 -3 -16 -14 -61 -25 -100 -31
-110 -64 -288 -76 -405 -6 -61 -14 -124 -23 -171 -10 -52 -8 -389 2 -459 4
-25 13 -76 21 -115 8 -38 17 -98 19 -132 2 -34 7 -66 10 -71 3 -5 8 -27 11
-48 6 -49 6 -47 55 -239 23 -88 50 -196 62 -240 11 -44 21 -82 24 -84 2 -2 31
23 64 55 74 73 124 114 139 114 6 0 42 -20 80 -45 38 -25 71 -45 74 -45 2 0
25 31 50 70 26 38 55 73 64 78 20 9 63 10 78 0 6 -3 33 -9 61 -13 l51 -6 32
49 c31 48 33 50 64 41 17 -5 37 -9 43 -9 19 0 49 33 83 91 30 50 36 55 63 51
22 -3 36 2 53 19 13 13 36 35 51 49 15 14 42 48 60 75 18 28 61 77 94 110 34
33 71 80 82 105 27 59 57 147 63 185 3 16 10 53 15 80 6 28 13 68 15 89 3 22
8 53 11 70 3 17 7 83 10 146 2 63 6 171 9 240 3 69 7 139 10 155 3 17 7 59 9
95 2 36 6 77 9 91 10 53 19 136 21 210 2 42 6 81 10 88 13 20 200 101 271 117
6 1 44 14 85 29 92 32 197 55 273 60 31 3 94 11 140 19 45 9 96 18 112 21 46
7 159 19 167 17 4 -1 5 5 2 13 -4 8 -9 15 -13 15 -3 0 -18 11 -32 23 -13 13
-45 37 -69 53 -25 16 -47 31 -50 35 -20 22 -229 151 -266 164 -25 8 -58 21
-72 29 -32 16 -99 32 -167 42 -27 3 -58 10 -67 15 -9 5 -28 9 -42 9 -14 0 -26
3 -26 6 0 14 46 72 122 154 34 37 99 84 136 99 17 8 32 17 32 22 0 5 4 9 9 9
9 0 172 89 181 99 3 3 39 23 80 45 41 21 83 47 92 57 10 10 39 32 65 50 71 49
108 89 139 149 26 51 28 63 28 170 0 122 -8 233 -19 250 -3 5 -1 10 6 10 8 0
8 4 2 13 -6 6 -16 44 -23 82 -7 39 -19 85 -26 103 -16 38 -54 90 -54 73 0 -6
-13 -26 -30 -44 -16 -17 -43 -49 -59 -70 -16 -21 -33 -39 -36 -40 -4 -1 -9 20
-11 46 -3 50 -40 138 -60 144 -6 2 -32 -19 -58 -48z m89 -217 l27 -72 56 47
c31 27 67 58 81 71 23 21 25 22 35 5 16 -27 14 -377 -2 -434 -17 -57 -77 -124
-157 -174 -33 -21 -69 -47 -80 -57 -36 -33 -119 -86 -185 -119 -36 -18 -86
-50 -111 -71 -25 -21 -50 -38 -55 -38 -5 0 -25 -13 -44 -30 -19 -16 -38 -29
-43 -30 -9 0 -55 -40 -123 -106 -56 -56 -88 -109 -99 -166 -9 -46 4 -54 100
-63 75 -7 173 -21 218 -30 70 -14 326 -164 319 -187 -1 -5 1 -7 5 -5 10 7 37
-14 40 -31 3 -10 -6 -15 -19 -11 -2 0 -15 -4 -31 -10 -15 -6 -38 -13 -50 -15
-12 -2 -44 -10 -72 -16 -27 -6 -58 -13 -68 -15 -10 -2 -57 -16 -105 -31 -48
-15 -96 -29 -107 -31 -45 -7 -182 -45 -210 -58 -16 -7 -64 -25 -105 -39 -228
-78 -220 -73 -221 -144 -5 -229 -13 -431 -23 -552 -3 -36 -8 -182 -11 -325 -6
-301 -12 -404 -24 -419 -4 -6 -12 -24 -16 -41 -5 -16 -9 -33 -10 -37 -2 -5 -3
-14 -4 -22 -1 -16 -74 -108 -148 -186 -28 -30 -67 -75 -85 -99 -31 -40 -39
-45 -78 -46 -45 -1 -50 -6 -111 -85 l-26 -35 -38 34 c-45 39 -40 42 -104 -63
-19 -31 -40 -56 -47 -56 -6 0 -25 7 -40 15 -36 18 -103 19 -126 1 -10 -7 -25
-31 -34 -52 -9 -21 -23 -47 -31 -56 -14 -16 -20 -14 -77 37 -34 31 -68 53 -76
50 -8 -2 -26 -6 -40 -9 -14 -2 -47 -16 -73 -31 -26 -15 -50 -26 -52 -23 -2 2
-6 17 -9 33 -3 17 -10 55 -17 85 -6 30 -13 71 -15 90 -3 19 -9 46 -13 60 -28
84 -55 211 -80 380 -18 119 -22 329 -8 430 3 19 8 69 11 110 4 41 9 100 11
130 3 30 7 66 9 80 3 14 7 42 10 64 4 21 8 41 11 45 2 4 7 27 10 52 11 79 23
128 38 147 5 6 7 12 3 12 -3 0 -2 10 3 23 5 12 12 42 15 67 10 68 11 74 18 86
4 6 10 26 13 45 3 19 10 52 15 74 14 59 13 64 -12 59 -13 -2 -36 -7 -53 -9
-16 -3 -62 -12 -101 -21 -39 -8 -77 -16 -85 -18 -12 -2 -58 -15 -156 -47 -36
-11 -64 -18 -108 -25 -56 -10 -190 -34 -215 -38 -82 -16 -146 -23 -152 -17 -4
4 17 49 48 100 31 52 60 107 66 122 11 32 49 48 130 55 29 2 61 7 70 10 9 2
27 7 40 9 74 15 128 29 128 35 0 4 6 7 13 7 35 1 103 16 154 34 32 11 78 24
103 30 25 5 61 16 80 23 45 18 72 28 85 32 6 1 33 12 60 25 28 12 52 23 55 24
3 1 18 7 33 13 16 7 34 12 41 12 38 0 77 25 100 63 13 23 37 56 53 72 16 17
56 66 88 110 66 89 80 105 91 105 11 0 114 107 114 119 0 5 28 33 62 63 35 29
85 74 111 100 27 26 72 60 100 76 29 16 65 41 80 56 15 14 32 26 38 26 5 0 9
5 9 10 0 6 4 10 10 10 5 0 33 15 62 33 29 19 60 37 68 40 8 4 33 18 55 32 22
14 58 35 79 46 21 11 48 29 59 39 11 11 35 26 53 35 38 18 45 27 59 75 9 31
30 45 30 21 0 -6 6 -16 13 -22 6 -7 12 -21 12 -30 0 -24 30 -32 50 -14 10 9
28 49 41 88 12 40 30 88 39 107 9 19 21 46 27 60 l10 25 17 -33 c21 -41 74
-92 95 -92 24 0 57 54 100 165 l38 99 27 -29 c15 -16 39 -51 54 -77 15 -26 29
-48 32 -48 3 0 20 30 39 68 45 87 72 126 81 115 4 -4 20 -41 35 -81z"/>
</g>
</svg>
