<svg xmlns="http://www.w3.org/2000/svg" width="144.255" height="244.263" viewBox="0 0 144.255 244.263"><defs><style>.a{fill:#fff;}</style></defs><g transform="translate(-81.088 -57.228)"><path class="a" d="M83.888,779.989c-.075.23.6.433,1,0v-1Z" transform="translate(-1.639 -481.565)"/><path class="a" d="M89.31,774.87c.367-.626.621-1.976,0-2-.212.79-.817,1.111-1,2-.4.433.042,1.193,0,1-.075.226-.958-.409-1,0,.887-.306,1.531-.187,2-1C89.545,774.785,89.291,774.776,89.31,774.87Z" transform="translate(-3.061 -478.446)"/><path class="a" d="M182.333,694.131v1C182.439,695.071,182.242,694.212,182.333,694.131Z" transform="translate(-67.085 -436.707)"/><path class="a" d="M236.227,641c-.179.2-.023-.038,0,0C236.378,640.8,236.3,640.97,236.227,641Z" transform="translate(-102.979 -388.579)"/><path class="a" d="M245.565,632.2h0C245.679,632.147,245.506,632.306,245.565,632.2Z" transform="translate(-109.316 -382.772)"/><path class="a" d="M182.786,693.462h1C183.73,693.287,183.144,693.165,182.786,693.462Z" transform="translate(-67.538 -436.038)"/><path class="a" d="M102.328,763.633c-.121.131.082-.159,0,0,.108-.127-.113.118,0,0C102.317,763.609,102.333,763.659,102.328,763.633Z" transform="translate(-11.079 -473.209)"/><path class="a" d="M158.92,718.671h0c-.023.1.008-.1,0,0Z" transform="translate(-47.671 -449.247)"/><path class="a" d="M140.249,735.181c.212-.174.028-.8,0-1-.009.224.152.835,0,1C140.324,735.253,140.145,735.174,140.249,735.181Z" transform="translate(-31 -457.757)"/><path class="a" d="M108.9,761.939h0C108.939,761.869,108.836,762.024,108.9,761.939Z" transform="translate(-14.648 -472.515)"/><path class="a" d="M171.981,706.035a9.079,9.079,0,0,0,1,0A5.771,5.771,0,0,0,171.981,706.035Z" transform="translate(-60.732 -442.611)"/><path class="a" d="M501.262,85.5h0C501.229,85.448,501.262,85.42,501.262,85.5Z" transform="translate(-281.013 -15.076)"/><path class="a" d="M510.558,57.6h0c.066.038.926-.018,1,0Z" transform="translate(-286.309 -0.173)"/><path class="a" d="M262.983,616.03h0C262.819,616.275,262.885,616.2,262.983,616.03Z" transform="translate(-120.735 -371.606)"/><path class="a" d="M391.159,439.14c-.884.833.2-1.341-1,0C390.376,439.1,390.223,440.279,391.159,439.14Z" transform="translate(-205.91 -253.717)"/><path class="a" d="M102.968,763.066c.118-.113.873-.892,1-1C103.835,762.165,103.079,762.943,102.968,763.066Z" transform="translate(-11.72 -472.642)"/><path class="a" d="M389.873,439.5Z" transform="translate(-205.624 -254.075)"/><path class="a" d="M298.339,574.3a7.064,7.064,0,0,0-1,0A5.014,5.014,0,0,0,298.339,574.3Z" transform="translate(-144.09 -343.875)"/><path class="a" d="M270.521,603.926l1-1C271.4,603.024,270.63,603.811,270.521,603.926Z" transform="translate(-126.272 -363.502)"/><path class="a" d="M311.041,556.163c.19-.143-.12-.795,0-1-.036.015.032.978,0,1C310.973,556.356,311.211,556.05,311.041,556.163Z" transform="translate(-152.792 -331.739)"/><path class="a" d="M323.521,539.327c-.056.024.061-.033,0,0Z" transform="translate(-161.272 -320.903)"/><path class="a" d="M487.14,150.15c.129-.159.819.1,1,0C487.81,150.244,487.511,148.358,487.14,150.15Z" transform="translate(-273.891 -48.726)"/><path class="a" d="M102.7,763.442c-.021-.122-.091.083,0,0h0C102.717,763.5,102.632,763.466,102.7,763.442Z" transform="translate(-11.449 -473.018)"/><path class="a" d="M306.014,550.063l1-1C306.717,549.406,306.39,549.63,306.014,550.063Z" transform="translate(-149.765 -327.639)"/><path class="a" d="M446.243,302.28h0C446.188,302.395,446.24,302.153,446.243,302.28Z" transform="translate(-251.994 -162.856)"/><path class="a" d="M314.672,540.417a7.4,7.4,0,0,0,1-1c.022-.07,0,.073,0,0Z" transform="translate(-155.423 -320.994)"/><path class="a" d="M488.653,150.707Z" transform="translate(-274.405 -49.283)"/><path class="a" d="M225.2,80.424c-.238,1.075.842.728,1,1-.172,1.307-.729.6-1,1-.076.823.142,1.4,0,2-.069.03.046.143,0,0,.1.909-1.139,2.935-1,4-.028.046.048-.025,0,0a1.948,1.948,0,0,1,1,0c-.1.484.274.871,0,1a2.509,2.509,0,0,0,0-1v1c-.436.378-.752-.944-1-1-.109,1,.261,2.267,0,3-.363.086.515-1.939,0-1v-1c-.713.776.736-.7,0,0-.436,1.516-.548,1.494-1,3,.1.385-.1.615,0,1-.175,2.249-1.069,1.3-1,3a2.213,2.213,0,0,1,0,2v-1c-.383,1.473.621,1.507,0,3-.076-.312.1-1.2,0-1-.535.935.185.227,0,1h-1c-.33,1.585-.614,4.245-1,6-.073-.119.2-1.381,0-1a44.727,44.727,0,0,1-2,7v1c-.053.186,0,.235,0,0-.33.793,0,.575,0,1-.106.474,0,.318,0,0a22.631,22.631,0,0,1-2,6v-1c-.456,1.151.578,1.978,0,3h0c-.436,1.264-.6,1.736-1,3a28,28,0,0,1-2,4c.284.494-.5,2.662,0,3-.753,1.36-1.142,1.023-2,3-.2.534.165.307,0,1h0v1h0c-.043.219-.947.774-1,1,.109-.242.931-.066,1,0a3.561,3.561,0,0,1-1,2l-1,2c-.1-.093-.036.332,0,0-.145,1.327-.868-.214-1,1,.119-.129.95-.046,1,0-.244.376-.853.576-1,1-.2.5.142,1.516,0,2h-1c-.7,1.678-1.251,3.1-2,5,.366-.64,1.195-.57,1,0h-1c.036.434,1.076.174,1,1-.33.693-1.069.441-1,0v1c-.112,0,.092-.9,0-1,.04.428-1.112,1.363-1,2h0c-.782,1.884-1.33,3.481-2,5,.241.143-.007.453,0,1-.578,1.081-1.419,1.643-2,3-.31,1,.046.509,0,1-.264-.04-.162,1.766,0,1a41.3,41.3,0,0,0-2,4c.2-.172-.013-.166,0,0-.145.381.083.113,0,0h0a18.491,18.491,0,0,1-2,4c-.772,1.158-1.769,1.992-2,3h0l-1,2c-.485.819.469-.547,0,0-.713,2.159-1.35,3.252-2,5a4.827,4.827,0,0,0-2,2c-.33.584-.68,1.456-1,2a12.493,12.493,0,0,1-1,2h0c-.112.514-.776-.292-1,0,.142.027,1.086-.312,1,0-.5.929-1.422,2.088-2,3s-1.37,2.108-2,3c-1.251,1.791-2.749,3.245-4,5-.911,1.287.472,1.607-1,3v-1a36.889,36.889,0,0,1-3,4c-.963,1.277-1.182,2.625-2,4,.049-.192-.178-.755,0-1a5.591,5.591,0,0,0-1,3c-.307.378-.743-.166-1,0-.505.448-.6.857-1,1-.066.023-.056.109,0,0-.158.418-1.462,1.166-1,1-.815.849-1.3,2.357-2,3-.129.663-1.208,1.585-1,2-.3-.332-1.706,1.287-2,2,.046-.282-.033.348,0,0-.518.663-1.274.97-1,1-1.386.879-.917,2.755-2,3l-1,2-2,1c-.693.955-1.317,2.1-2,3-.287-.352,2.422-1.771,2-2-.617.879-1.535,1.3-2,2a15.686,15.686,0,0,1-2,2c-.4.378-.066.189,0,0-.63.872-.34,1.25-1,2a34.255,34.255,0,0,0-2,3,2.587,2.587,0,0,1,0-1c-.238.292-1.178.894-1,1h1c.617-.255-1.069.844-1,1,0-.866-1.125,1.267-1,0-.139.209-.139.95,0,1-.274.245-1.135.378-1,0-.819,1.071-.172,1.1-1,2a4.792,4.792,0,0,1,0-1,5.113,5.113,0,0,1-1,2c0-.086-.208.229,0,0-1.162,1.327-1.548,2.7-3,4,.079-.713-.66.179-1,0v1h0c-.63.663-1.373.512-2,1h1l-1,1h0c-.5.8.911.184,0,1,.142-.206-.515-.2-1,0h0a7.228,7.228,0,0,1-1,2c-.208.043-.868-1.03-1-1-.086.534-.842,2.363-1,3a2.277,2.277,0,0,0,0-1v1c-.35.249-.937.156-1,0-.918.886,1.195.041,0,1,.069-.1-.145.206,0,0-1.135,1.015-1.934,2.088-3,3-.551.03.551-1.113,0-1-1.357,1.489-2.561,2.683-4,4h0c.175.564-1.469,1.134-2,2,.145-.2.02-.1,0,0a23.064,23.064,0,0,0-3,3h0c-.64.464-1.346,1.449-2,2-.086.272-.347.063,0,0-2.406,1.27-2.864,3.862-5,5,.2-.192.158-.153,0,0l-1,1c.271.06-.426.156,0,0-.185.406-.669.7-1,1,.545-.723.366-.169,0,0,.1,0-.073-.03,0,0-1.033.411.215.234-1,1h0a16.576,16.576,0,0,1-1,2c-.35-.03.125-.811,0-1-.571.561-.29,1.7-1,2,.2-.289-.2-.711,0-1-.474.168-.642.646-1,1v-1l-1,1h0c-.264,1.191-1.317,1.746-2,3,.66-1.207.139-.711,0-1-.307.172-1.053,1.163-1,1-.307.61-.591.131-1,1-.1-.043-.941.279-1,0-.558.617.967-.129,1,0-.716,1.111-2.944,2.421-4,4-1.046,1.207-1.023.9-2,2h0c-.615.384-.554.427-1,1,.059-.166-.756-.073-1,0-.432.425.687.572,0,1,.022-.24-.1-.782,0-1-.469.544-1.511,1.439-2,2-.257,0,.878-.741,1-1-.564.614-1.987,1.629-2,2h1c-.218.212-.135.186,0,0a.924.924,0,0,0,0-1v1c.782.063,1.2-1.313,2-2h0l1-1c.244-.076.347.612,0,1,.7-.358.363-.731,1-1,.076-.023.04-.07,0,0l1-1a4.015,4.015,0,0,1-1,1c1.145-.72,1.422-1.894,2-2h0c1.271-1.35.214-.789,1-2h1c.149-.123.97-.136,1,0,.383-.634-.178-.559,0-1,.862-.418,1.525-1.216,2-1,.089-.395-.611-.2,0-1,.558.192.221-.609,1-1,0,.371-.779,1.391,0,1,.069-.663,1.538-1.453,2-2-.221-.289,1.214-1.1,2-2a20.271,20.271,0,0,0,3-2h0c-.092-.411.462-1.376,1-2a.917.917,0,0,1,0,1v-1c.11-.305.763.22,1,0h0c.743-.726.907-2.211,2-3-.122-.236-.9,1.1,0,0,.135.063.224-.3,0,0,.115-.2-.181-.862,0-1v1c.508-.332.634-.695,1-1,.129.149-.056-.146,0,0-.076.1.083.814,0,1,.361-.334.541-.824,1-1-.112-.046-.271.3,0,0,.786-.746.495-.668,1-1,.089-.272.188-.774,0-1,.131-.127.819-.015,1,0,.3-.468,1.654-1.2,1-1h0c1.06-1.436,2.838-2.686,4-4h0a27.37,27.37,0,0,0,2-3c.218-.219,1.01-.176,1,0,.512-.617.069-.3,1-1-.449.69-.2-.753-1,0,.792-.663,1.422-.015,2-1-.089.448.706-.592,1-1h0a11.16,11.16,0,0,1,1-1v1a7.751,7.751,0,0,0,2-2,5.7,5.7,0,0,1,2-2c.224-.567-1.155.551-1,0,.71-.663,1.776-.781,2-1,1.063-.836-.05-1.071,1-2-.208.046-.637-.164,0-1,.7-.663,1.356-.514,1,0-.155.176.023.033,0,0-.185.259-.356.192,0,0h0c.419-.269,1.063-1.362,1-1,.423-.614.406-.362,0,0,.99-.793,1.039-1.128,2-2-.185.106-.142.149,0,0,1.39-1.29.168-1.022,1-2,.624-.411.234,1.051,1,0,.624-.5.129-.3,0,0a9.508,9.508,0,0,1,2-2h0c.186-.273-.227.24,0,0h0c.274-.242.931-1.07,1-1,.135-.381-1.34.7-1,0,.416-.279,1.653-1.086,2-1-1.1,1.061-.185,0-1,1a9.316,9.316,0,0,1,1-1c.063,0,.04-.086,0,0,1.185-.9-.007-.869,1-2,0,.262.865.209,1,0-.409.454-1.267.511-1,0,.746-.637.653-1.629,1-2v1c0-.262.587-.456,1-1,.139.046-.2.139,0,0,.261-.773,1.478-1.065,2-2,.406-.292-.337.272,0,0,.594-1.042,1.337-.939,2-2-.409.116-.406-.191,0-1l-1,2v-1a12.588,12.588,0,0,1-1,1c.257-.6.34-.093,0,0,.812-.4,1.188-1.423,2-2h0a35.242,35.242,0,0,0,3-3h0c-.016-.332.68-.469,1-1,.116.169-.244-.877,0-1-.132-.066,1.195-.615,1-1l1-1c1.043-1.118.01-.9,1-2-.109.478.5.141,0,1,.314-.378,1.1-.91,1-1,.274-.149.574-1.764,1-2,.059-.216-.353-.579,0-1a4.823,4.823,0,0,1,0,1c-.076-.063.465-1.242,0-1,1.423-.8,2.789-3.277,4-4,.6-.889,1.432-2.207,2-3,0,.083.125-.136,0,0,.944-.969-.069-.892,1-2,.716-.435-.37,1.318,0,1,.64.212,1.1-1.383,2-2h0c.634-.511.221-1.985,1-3,0,0,.924.02,1,0,.183-.568-.3-.486,0-1,.33-.6.7-1.466,1-2,0,.461-.343.046,0,0,.284-.474.436-.055,1-1,.33-.216.716-1.066,1-1l-1,1c.594-.236.637-.582,1-1h0c.865-1.327,1.026-1.607,2-3h0c.195-1-.277-.061,0-1h1a28.345,28.345,0,0,1,1-3c-.1.683-.7,1.24-1,2,.35-.5,1.987-1.629,2-2-.077.259-.835.786-1,1a8.788,8.788,0,0,1,1-3c.261.3,1.482-.221,2-1s.518-1.778,1-2a23.4,23.4,0,0,1,2-3c.614-.935,1.383-1.909,2-3-.961.478-.4-.831-1-1,.261-.527.941.027,1,0l1-2c.356-.282-.155.98,0,1,.66-1.1.445-.32,1-1-.274.046-.429-.4,0-1h0c.584-1.728,1.426-.245,2-2h-1c.33-.876,2.007-2.969,2-4,.139-.113.152-.381,0,0,.55-1.041,1.6-1.892,2-3a14.063,14.063,0,0,1,1-3h0c.139-.395.644-.6,1-1,.043.05-.089.169,0,0,.1-.548-.263-.509,0-1h0a6.684,6.684,0,0,0,1-2c.173-.806.733-2.22,1-3,.4.186,1.591-1.26,2-2h0a41.939,41.939,0,0,0,2-6c.485-.584.5-1.756,1-3s1.459-2.949,2-4c-.2.305-.106.4,0,0,.277-.481-.343-1.222,0-1h0c.525-.245.693-1.174,1-2v-1c.743-.952.614-1.68,1-3,.195-.663.818-1.469,1-2,.127-.443-.308-.658,0-1,.049-.567.95-1.439,1-2h0c.274-.716.8-1.413,1-2,.1-.292-.125-.655,0-1s-.119-.542,0-1h0c.33-1.018-.277-1.055,0-2h1a29.217,29.217,0,0,0,1-6c.049.046,1.069.7,1,1,.254-.839.64-3.149,0-3,.36.08.9-1.982,1-3h0a4.187,4.187,0,0,1,0-2c.109-.262.165-.342,0,0,.383-.866.561-.945,1-2v1a3.993,3.993,0,0,0,0-2c.049-.614-.274-1.924,0-2-.157-.407.826-.6,1-1,.112-.05,0-.109,0,0,.581-1.516-.538-1.992,0-3a4.341,4.341,0,0,0,1,0,4.516,4.516,0,0,1-1,2c.248.063.861-.886,1,0,.02-.852-.363-2.041,0-3,.034-.041-.045.029,0,0h0a4.743,4.743,0,0,0,0-1c.109-.257.929-.73,1-1,.234-.066-.132-.5,0-1-.281-.027.37-.554,0,0,.036-.076.063-.335,0,0-.013.072,0-.073,0,0h0c-.076.332-.891.512-1,1-.079-.476.773-.575,1-1-.1-.264-.925-.727-1-1a18.5,18.5,0,0,1,2-2,10.432,10.432,0,0,0,0-4c.036-.451-.119-.854,0-1a8.345,8.345,0,0,0,0,1c.069-.9,1.307-2.711,1-3,.413-1.061-.29.522,0-1h0c1.238-2.849.548-4.862,2-8-.092.219.069-.033,0,0,1.129-3.7.713-7.388,2-11a3.615,3.615,0,0,0,0-2h1v-1c.073-1.615,1.063-2.917,1-5h-1c.185-.7.785-2.166,1-2-.094-.165-.094.165,0,0h0v-2c.386-1.327.578-.033,1-2,.089-.75.158-2.255,0-2-.069.3.158,1.01,0,1v-1c-.426-.212-1.353-.585-2,1v1c-.33.507-.046.582,0,1-.158.1.055-.179,0,0v2c-.2.1-.749-.74-1,0,.1.567,1.043-.9,1,0-.33.507-1.046.337-1,1-.135.066,0,.269,0,0a8.364,8.364,0,0,0,0,2c-.37.521-.584,2.146-1,2,.1.533,1.07.463,1,1-.314-1.071-.5,2.368-1,2,.33.809-1,2.683-1,4a5.128,5.128,0,0,1,0-1c-.135.46.229,1.578,0,2,.36.169-.112,1.353,0,2-.545.8-.587-1.2-1-1,.33.023.69,2.252,1,2-.37.62-.614-.275-1,0,.449.219-.175,1.386,0,2-.439.915.079-.091,0,1C225.882,81.835,225.2,80.424,225.2,80.424Zm-5,26h0v0Zm0,2c.076-.252-.083-.662,0-1,.112-.05.059-.209,0,0A2.147,2.147,0,0,1,220.2,108.424Zm3-4c-.043.332.066-.033,0,0,.033-.159-.04.259,0,0,0,0,.01-.987,0-1A8.884,8.884,0,0,1,223.2,104.424Z" transform="translate(-6.954 0)"/><path class="a" d="M482.757,195.927c0-.068-.011.067,0,0-.058.083.046-.09,0,0Z" transform="translate(-271.508 -87.503)"/><path class="a" d="M182.13,695.37h0c-.043.023.048-.011,0,0C182.162,695.365,182.1,695.379,182.13,695.37Z" transform="translate(-66.881 -436.946)"/><path class="a" d="M448.26,295.778Z" transform="translate(-253.011 -158.354)"/><path class="a" d="M153.446,717.448c-.082,0,.068-.046,0,0C153.469,717.463,153.333,717.5,153.446,717.448Z" transform="translate(-38.197 -449.025)"/><path class="a" d="M141.678,727.982l-1,1C140.972,728.8,141.4,728.2,141.678,727.982Z" transform="translate(-31.429 -454.558)"/><path class="a" d="M133.853,736.118c-.005.068-.027-.062,0,0Z" transform="translate(-27.604 -458.694)"/><path class="a" d="M266.334,600.769c.047-.055-.038.061,0,0C266.626,600.327,266.536,600.431,266.334,600.769Z" transform="translate(-123.085 -361.346)"/><path class="a" d="M228.834,642.5c.141-.254.812.245,1,0C229.467,642.816,228.683,642.331,228.834,642.5Z" transform="translate(-98.585 -394.072)"/><path class="a" d="M305.724,551.6Z" transform="translate(-149.475 -329.18)"/><path class="a" d="M231.57,640.618a4.936,4.936,0,0,0-1,1A7.74,7.74,0,0,0,231.57,640.618Z" transform="translate(-99.321 -388.194)"/><path class="a" d="M94.213,770.366h0c.014.02.014-.02,0,0Z" transform="translate(-6.964 -476.942)"/><path class="a" d="M94.017,770.615v1C94.121,771.54,94.017,770.69,94.017,770.615Z" transform="translate(-6.768 -477.191)"/><path class="a" d="M93.562,771.9h0C93.4,772.042,93.595,771.712,93.562,771.9Z" transform="translate(-6.313 -477.472)"/><path class="a" d="M106.762,759.742h0C106.747,759.8,106.726,759.7,106.762,759.742Z" transform="translate(-13.513 -471.319)"/><path class="a" d="M108.742,757.2c-.419.339-1.5.431-2,1h0C106.869,757.8,108.531,757.714,108.742,757.2Z" transform="translate(-13.493 -469.778)"/><path class="a" d="M126.195,746.525l-2,1c.348-.108,1.612-.612,1,0C127.265,746.25,124.327,748.157,126.195,746.525Z" transform="translate(-22.946 -464.101)"/><path class="a" d="M136.585,737.962c-.7.743.981-.1,1,0C137.961,737.421,137.229,737.543,136.585,737.962Z" transform="translate(-29.336 -459.538)"/><path class="a" d="M201.937,676.218h1C203.455,675.625,202.027,676.439,201.937,676.218Z" transform="translate(-80.689 -426.794)"/><path class="a" d="M211.173,661.264h0Z" transform="translate(-85.924 -418.841)"/><path class="a" d="M222.256,656.2v1l1-1Z" transform="translate(-94.007 -404.779)"/><path class="a" d="M322.043,542.625h-1C320.784,543.081,321.61,543.392,322.043,542.625Z" transform="translate(-159.794 -323.201)"/><path class="a" d="M359.921,488.136c.525-.3.832-1.421,1-2C360.537,486.571,360.258,487.662,359.921,488.136Z" transform="translate(-185.673 -285.712)"/><path class="a" d="M449.959,314.063l-1,1,1-1Z" transform="translate(-253.71 -170.639)"/><path class="a" d="M244.872,786.26c.071-.122.188-1.052,0-1v1Z" transform="translate(-108.623 -484.836)"/><path class="a" d="M242.114,784.658c-.3.261-.086.614,0,1,.221-.442-.24-.468,0-1,.188-.052.033-.174,0,0,.066-.118.9.3,1,0-.077-.161-.822.018-1,0s.108-.142,0,0C242.049,784.554,242.1,784.747,242.114,784.658Z" transform="translate(-106.866 -484.234)"/><path class="a" d="M203.761,782.572h0C203.73,782.54,203.806,782.576,203.761,782.572Z" transform="translate(-81.512 -483.149)"/><path class="a" d="M179.8,781.006c.089,0,0,.042,0,0C179.715,781.034,179.781,780.964,179.8,781.006Z" transform="translate(-65.546 -482.582)"/><path class="a" d="M176.08,780.488h0C176.038,780.446,176.109,780.451,176.08,780.488Z" transform="translate(-62.832 -482.064)"/><path class="a" d="M203.347,782.4h0C203.323,782.554,203.2,782.365,203.347,782.4Z" transform="translate(-81.098 -482.979)"/><path class="a" d="M236.941,786.754c.064-.026-.044.054,0,0-.05.02.053-.011,0,0Z" transform="translate(-103.692 -485.33)"/><path class="a" d="M213.809,781.006h1c.03-.061-.023.064,0,0Z" transform="translate(-88.56 -482.582)"/><path class="a" d="M222,781.2c-.085,0,.033.826,0,1,.017-.115-.1.057,0,0C222,782.1,222.022,781.287,222,781.2Z" transform="translate(-93.748 -482.773)"/><path class="a" d="M234.763,783.012h1C235.726,783.026,234.8,782.992,234.763,783.012Z" transform="translate(-102.515 -483.588)"/><path class="a" d="M208.889,780.921c0-.048.018.045,0,0C208.89,780.97,208.868,780.877,208.889,780.921Z" transform="translate(-84.64 -482.497)"/><path class="a" d="M92.254,678.991h0C92.217,678.972,92.259,678.958,92.254,678.991Z" transform="translate(-6.006 -428.567)"/><path class="a" d="M98.151,670.39h0c.075,0-.075-.01,0,0Z" transform="translate(-8.902 -423.967)"/><path class="a" d="M168.1,778.859h0C168.211,778.831,168.154,778.831,168.1,778.859Z" transform="translate(-57.849 -481.435)"/><path class="a" d="M99.578,778.735c.362.358-1.546.624-1,1C98.531,779.58,100.034,778.97,99.578,778.735Z" transform="translate(-9.329 -481.311)"/><path class="a" d="M236.587,786.834h0C236.638,786.848,236.536,786.848,236.587,786.834Z" transform="translate(-103.338 -485.41)"/><path class="a" d="M98.771,780.688Z" transform="translate(-9.522 -482.264)"/><path class="a" d="M151.122,779.032c.015.063-.038-.052,0,0C151.114,778.967,151.166,779.08,151.122,779.032Z" transform="translate(-36.873 -481.608)"/><path class="a" d="M163.285,780.693h0C163.33,780.724,163.231,780.686,163.285,780.693Z" transform="translate(-52.036 -482.27)"/><path class="a" d="M144.33,780.552a3.954,3.954,0,0,0-1,0c.008.017-.014-.014,0,0A2.851,2.851,0,0,1,144.33,780.552Z" transform="translate(-33.081 -482.128)"/><path class="a" d="M136.893,780.566c0,.033-.019-.028,0,0h0Z" transform="translate(-29.645 -482.142)"/><path class="a" d="M89.952,699.823a9.521,9.521,0,0,1,1,0C90.67,699.837,90,699.24,89.952,699.823Z" transform="translate(-4.703 -439.399)"/><path class="a" d="M236.8,786.643c0,.1.052-.023,0,0h0C236.817,786.588,236.823,786.7,236.8,786.643Z" transform="translate(-103.548 -485.219)"/><path class="a" d="M142.8,787.061h0C142.966,787.1,142.619,787.06,142.8,787.061Z" transform="translate(-32.547 -485.637)"/><path class="a" d="M83.82,749.277h0C83.8,749.323,83.784,749.246,83.82,749.277Z" transform="translate(-1.571 -465.854)"/><path class="a" d="M138.667,786.775c-.07-.115.118.067,0,0-.027.03.014-.038,0,0Z" transform="translate(-30.418 -485.351)"/><path class="a" d="M91.375,700.017Z" transform="translate(-5.127 -439.594)"/><path class="a" d="M85.249,680.112c-.075.47.713.859,1,1,.066.607-.713-.165-1,0,.085.386,1.052.727,1,1a5.908,5.908,0,0,1-1,0c.358.442.544,1.483,1,2-.042.024.048,0,0,0,.24-.031-.237-.047,0,0,0,.221.348,1,0,1a2.644,2.644,0,0,0,0-1v1c-.513.146.343-.953,0-1a4.763,4.763,0,0,1,0,2c-.47,0-.52-1.4-1-1h1c-.8.31-.148-.273-1,0-.226.682.231.318,0,1h0c.348,1.058-.541,1.186,0,2,.292.231.386.516,0,1v-1c-.136.673.452.318,0,1-.2-.151.08-.085,0,0-.47.409.042.647,0,1h-1c0,.734,1.014,1.186,1,2-.136-.061-.835-.169-1,0a6,6,0,0,1,0,3v1c-.024.05.055-.008,0,0s.036.042,0,0c-.2.362-.141-.2,0,0,0,.088.085-.024,0,0s.051.073,0,0c.268.715.522,2.346,0,3v-1c-.231.531.442,1.534,0,2h0c-.315,1.176-.275,2.158-1,3,.574.245-.819.831,0,1a8.076,8.076,0,0,0-1,2c-.066.254.944-.325,1,0h-1l1,1h-1c.061-.132.855-.013,1,0,.059.468-.561.826-1,1v1c-.169-.047.094.16,0,0,.376.635-.353.417,0,1,.1-.066-.089-.019,0,0-.286.375-.1.539,0,1h0c-.165.814.1,2.078,0,3,.08-.131-.152-1.018,0-1s-.046.854,0,1h0c.263.2-.311-.4,0,0-.089.334.127.212,0,0h0a7.871,7.871,0,0,1-1,0c.268.2-.47.7,0,1h0a18.832,18.832,0,0,0,0,2c.39.056.7.746,1,1-.183.541-.972.337-1,1,.151.47.784.765,1,1-.353-.094-.8.588-1,0-.038.7,0,1.539,0,2,.007.538-.071,1.467,0,2a3.82,3.82,0,0,1,1-1c-.013.231-.869.809-1,1-.007.069.061-.034,0,0h0a7.132,7.132,0,0,1,2,0c.442.066.483-.127,1,0,.245.061.737-.052,1,0h0c.071.019-.073-.009,0,0,.272.052.781.169,1,0h1c.428.066-.315-.2,0,0,1.021-.588,1.163.39,2,0,.63,1.077,3.139.308,4,1v-1c.226-.245-.165.944,0,1,0-.193-.141-.864,0-1,1.882-.278,4.052.746,6,1,.71.075.111-1.607,1-1v1c1.444-.541,2.584-.544,4-1-.085.108.141,1,0,1,.3.343.991-.727,1-1,.216.033-.132.859,0,1,.3.207.845-.339,1,0,.024.057.052-.024,0,0,.2-.16,1.179-.61,1-1,.522.193.6.765,1,1,.282-.433.906-.384,1-1-.047.64.661.3,1,0-.113.193,1.136.736,1,1,.381,0,.066-.647,0-1,.7.771,1.6.012,2,1a20.353,20.353,0,0,1,3-1c-.047.64-1.038.332-1,1,.969-.249,2.045-1.169,3-1,.249.089-.911.892-1,1a28.336,28.336,0,0,0,3-1c0,.061.089-.047,0,0,.174,0,.014.287,0,0h0c-.263-.423.967-.779,1-1-.3.828.47.96,0,2,.151-.064.013-.837,0-1,.165.061,1.174.784,1,1,.612-.151-.541-1,0-1,0,.141.061-.165,0,0,.282-.268.539-.122,1,0-.028.085.136,0,0,0a4.413,4.413,0,0,1,2,0c-.268.607.962.473,1,1v-1h0c.414,0,.647-.179,1,0h0c.423-.268.454-1.151,1-1a1.05,1.05,0,0,0,0,1h0c.207-.165.7-1.132,1-1,.08.174-.071.887,0,1,.207-.437.737.466,1,0-.074.135-.029-.151,0,0h0c.193.118,1.033-.221,1,0,.574.071-.677-.3,0,0-.052.028.113-.052,0,0,.682.16,1.374-.188,2,0,.179.532-.207-.447,0,0a6.069,6.069,0,0,1,2,0h0c.132-.748.553.348,1,0-.108.057-.033.08,0,0a3.8,3.8,0,0,0,2,0h0c.431.111.555-.023,1,0,.113-.188,1.132.282,1,0,1.167,1.11,1.965-.927,3,0h1c-.066-.329-.817.268-1,0,.13-.2.761-.991,1-1-.4.207-.169.817,0,1-.028-.1.033.1,0,0,.47.588.37-1.4,1-1v1c.24-.085.751-1.056,1-1,.1.376-.981.7-1,1,.362,0,.68-.381,1,0-.151.1.155-.1,0,0,.348.447-.263-.075,0,0h1c.47-.979.4-.365,1-1-.6.6.052.577,0,1,.155.122,1.071.882,1,1,.292-.339-.419-.5,0-1,0,.141,1.066.638,1,1,.372-.1-.038-.831,0-1,.579-.47,1.167.635,2,0,.72-.259.332-.779,1-1,.221.221,0,1,0,1a.989.989,0,0,0,1,0c-.071.118-.1-.155,0,0,.278-.033.642-.212,1,0-.068.194-.88-.167-1,0,.325-.122.666.1,1,0,.085.24.118-.155,0,0,.376-.1.882.376,1,0h0c.136,0,.1-.066,0,0-.325.3-1,.136-1,0h1c-.231-.814-1.53.056-2,0l1-1-1,1c-.1-.155-.235-.906,0-1-.339-.3.287.329,0,0-.033-.047,0,.024,0,0h-1c.066-.122-.207-.085,0,0-.6-.344-.779.428-1,0h0c-.837.183-.37.487-1,1v-1h0c-.089,0-.038.169,0,0-.325.287.193-.287,0,0-.4-.4-1.915.687-2,0-.155.325.442-.212,0,0-.118-.739-.628.343-1,0,.118-.376,1.372.343,1,0-.235.64-.68-.118-1,0,0,.513-1.464-.165-2,0,.033-.174-.5-.826-1-1h0a1.46,1.46,0,0,1-1,1c-.024-.228-.2-.885,0-1h0a3.976,3.976,0,0,1-1,1v-1c-.47,0-.393.292-1,0-.038.362.645,1.765,0,2,0-.2-.165-.925,0-1-.052.023.113.085,0,0h0c-.268-.146-.784.033-1,0,0-.278-.033.221,0,0,.056-.028.911.118,1,0-.265-.051-.857-.771-1-1,0,.16.188.967,0,1-.47,0-.732-.868-1-1-.118.193.009-.4,0,0-.141,0,.052.113,0,0-.245.179-1.263.567-1,1h0c-.8.4-2.21-.169-3,0h0c-.47.155-.638-.3-1,0-.184-.053-.034.188,0,0-.358.1-.459.254-1,0,.367-.24-.494-1.042,0-1-.47-.127-.492-.348-1,0,.174-.353.226-.122,0,0h0a4.14,4.14,0,0,1-1,0h0c-.941-.583-1.285.941-2,0-.254.325.231-.381,0,0a4.5,4.5,0,0,0-1,0c-.6-.268-.374.207-1,0a2.43,2.43,0,0,1,0,1c-.063.15.155-.046,0,0-.438-.071-1.282-.868-1-1,.1,0,0-.056,0,0,.141-.061,1.174.183,1,0h0c-.216-.174-1.146.273-1,0-.334.155-.245-.089,0,0-.56-.249-.421.188-1,0,.094.094.089,0,0,0-.847-.216-.44-.066-1,0-.325-.263-.407-.207-1,0-.348-.174-.141-.864,0-1-.532.315-.7.061-1,0h0c-.14.059.151.012,0,0h0c-.165-.061,0,.141,0,0a9.98,9.98,0,0,1-1,1c-.216-.174.066.447,0,0,.682.16-.579-.939,0-1-.131.056.131.056,0,0,0-.052-.042.024,0,0-.649-.4-.323,1.028-1,1,.089-.249.108-1.042,0-1,.273,0,.254.812,0,1-.433-.2-.769.024-1,0h0c-.089.249-.7-.075-1,0,0-.193,1.108.089,1,0-.343.438-1.525-.3-2,0-.216-.174.2-.882,0-1-.532.315-.445-.263-1,0,.155.339.4.675,0,1h0a5.423,5.423,0,0,1,1,0c-.282.268-.127-.282,0,0-.372-.508-.567.348-1,0h0c-.649-.381-1.153.221-2,0h0c-.118.329-.722-.127-1,0,.028-.278.118-.826,0-1,0,.207-.915.445-1,1h0c-.687-.16-1.346.1-2,0,.2-.3.553.212,1,0-.221,0-1-.193-1,0-.127-.179-.8.268-1,0-.094.122.249.028,0,0-.014-.044-.014.044,0,0,0,.136-.212.713,0,1-.663-.88-2.407-.247-3-1-.494.093-.5-.029-1,0,.028-.085-.085-.033,0,0-.6-.268-.323.32-1,0-.343-.47.216.169,0,0-.085-.941-.544.541-1,0v-1c-.348-.32-.45,1.075-1,1,.014-.044.014.044,0,0-.4.47-1.445-.122-2,0,.179-.358.1.367,0,0-.249.047.5-.1,0,0-.155-.2-.958.391-1,0h0c-.235-.508.245.08,0,0v-1c-.715.061-1.228,1.052-2,1h0c-.428.546-.572-.4-1,0h0c-.468.262-.486-.154-1,0a3.809,3.809,0,0,1,1-1c-.278,0-.859.727-1,1,.108-.052-.108-.085,0,0-.31.422-.477.029-1,0,.113-1.082-1.6-.153-2-1-.979.391-1.871-.047-3,0,.39.847-.061.116,0,1a3.623,3.623,0,0,1-1,0v-1c-.188-.254.019.193,0,0-.579-.075-.624-.765-1-1,.075.311.325,1.122,0,1h0c-.809.47-.186-.447-1,0h0c-.419.151-1.591-.687-2,0-.038-.129-.038.129,0,0-.085-.042.2-.118,0,0s-.777-.028-1,0c.023-.109-.076.082,0,0h0c-.061,0-.231.212,0,0,.084-.03.928.054,1,0-.065.015-.935.015-1,0a2.551,2.551,0,0,1,0-1c.08.007.92.007,1,0,.075-.08.042.042,0,0-.026-.027-.97.023-1,0-.033-.071.042.089,0,0-.2-.354.073-.6,0-1,.616.066.864-.628,1-1h0a9.043,9.043,0,0,0,0-3c.739-.579.511-2,1-3-.132.146-.948-.807-1-1,.151-.231-.56-.1,0,0h0a1.315,1.315,0,0,0,1-1h-1c1.186-.908-.026-3.548,1-4h0a6.622,6.622,0,0,0,0-2h1c.08-.47-1.024-.558-1-1h0c.089-.828.447-2.12,0-3a4.478,4.478,0,0,1,1,1c.061-.386-.167-2.052-1-2,.532.052.183-.525,0-1h1c-.47-.437-.925-.464-1-1,.066-.122.118-.155,0,0,.254-.391-.273-.52,0-1h1c.08-.423-.737.268-1,0a2.391,2.391,0,0,1,0-1c.105-.155.816.034,1,0-.212-.085-1.132-.76-1-1,.1-.01.953-.089,1,0,.353-.682-.447-.553,0-1,.084.012-.071.045,0,0a5.017,5.017,0,0,1,0,1c.362.042.53-.409,1,0-.226-.4-1.226-1.577-1-2,.041-.023-.046.008,0,0h0c.049-.091.049.091,0,0,.075-.107.976.129,1,0,.306,0-.047-.77,0-1-.4-.028-.638-.24-1,0,.033-.033,0-.155,0,0,0,.037-.02-.031,0,0h0a7.072,7.072,0,0,1,0,1,.867.867,0,0,1,0-1c-.24-.151.127.089,0,0,.588-.245.628-.962,1-1a2.978,2.978,0,0,0-1-2c-.071-.212.878-.939,1-1,.061.127-.1.92,0,1-.141-.423-.5-1.84-1-2,.3-.47,1,.7,1,0h0c1.007-1.247-1.261-2.612,0-4-.08.1.089-.01,0,0,.692-1.651.026-3.415,1-5,.212-.47.212-.675,0-1h0c-.259-.762.55-1.007,0-2h0c.1-.315-.3-1.108,0-1-.047-.042-.165.1,0,0h0v-1c.249-.588.831-.106,1-1-.038-.343-.835-1.1-1-1-.05.185.191.009,0,0h0c-.64-.151-1.435-.668-2,0v1h0c-.334.207-.155-.207,0,0-.145,0,.1-.107,0,0v1c-.268.024.193-.306,0,0,.254.282-.132-.423,0,0-.329.207-.207.671,0,1-.138.025.05-.869,0-1,.16.287-.31.817,0,1-.4.212-.388,1.113-1,1,.219.2.954.7,1,1-.677-.546-.228,1.226-1,1,.616.419-.292.374,0,1-.052-.038-.042.047,0,0-.1.315.16.807,0,1,.541.118.7.694,1,1-.583.325-.478-1.056-1-1,.47.038-.386,1.085,0,1-.367.259.475-.094,0,0,.677.146-.4.694,0,1-.4.4-.146.487,0,1C85.929,681.446,85.249,680.112,85.249,680.112Zm0,12Zm0,1c.034-.137-.01.141,0,0,.141,0,.019-.1,0,0C85.178,693.046,85.395,692.98,85.249,693.112Zm3-2c.038.16-.915.991-1,1,.008-.091.008-.909,0-1h0C87.315,691.132,88.19,691.076,88.249,691.112Z" transform="translate(0 -423.688)"/><path class="a" d="M94.075,714.886c0-.022,0,.022,0,0-.035.024.031-.029,0,0Z" transform="translate(-6.827 -447.463)"/><path class="a" d="M203.961,782.646h0c.018.016-.01-.021,0,0C203.945,782.629,203.974,782.667,203.961,782.646Z" transform="translate(-81.712 -483.223)"/><path class="a" d="M83.78,747.086Z" transform="translate(-1.531 -464.662)"/><path class="a" d="M215.5,785.256c.01.042-.035-.025,0,0C215.484,785.217,215.53,785.285,215.5,785.256Z" transform="translate(-89.25 -484.833)"/><path class="a" d="M219.791,785.394h1C220.69,785.333,219.905,785.426,219.791,785.394Z" transform="translate(-92.542 -484.97)"/><path class="a" d="M224.274,786.447c.018-.055,0-.942,0-1h0Z" transform="translate(-95.025 -485.023)"/><path class="a" d="M163.4,786.744h0C163.237,786.838,163.284,786.809,163.4,786.744Z" transform="translate(-52.153 -485.32)"/><path class="a" d="M181.826,784.827c-.083.072-.9-.05-1,0C180.976,784.86,181.816,785.053,181.826,784.827Z" transform="translate(-66.577 -484.404)"/><path class="a" d="M143.383,787.146Z" transform="translate(-33.134 -485.722)"/><path class="a" d="M180.281,784.993a2.485,2.485,0,0,0,1,0A3.951,3.951,0,0,0,180.281,784.993Z" transform="translate(-66.032 -484.569)"/><path class="a" d="M240.183,786.881h0c0-.022,0,.022,0,0Z" transform="translate(-105.934 -485.457)"/><path class="a" d="M240.317,786.855h0C240.27,786.855,240.331,786.812,240.317,786.855Z" transform="translate(-106.069 -485.431)"/><path class="a" d="M241.468,786.744h-1C240.534,786.744,241.421,786.856,241.468,786.744Z" transform="translate(-106.219 -485.32)"/><path class="a" d="M235.808,786.717h0C235.826,786.672,235.808,786.765,235.808,786.717Z" transform="translate(-102.56 -485.293)"/><path class="a" d="M233.9,786.681a2.637,2.637,0,0,0,1,0h0C234.812,786.892,234.066,786.441,233.9,786.681Z" transform="translate(-101.653 -485.257)"/><path class="a" d="M227.7,782.234h0c-.1-.155-.273.033,0,0C226.955,781.768,228.488,782.3,227.7,782.234Z" transform="translate(-97.454 -482.81)"/><path class="a" d="M223.819,782.091c.325-.071,0-.915,0-1C223.63,781.218,223.579,781.94,223.819,782.091Z" transform="translate(-94.57 -482.667)"/><path class="a" d="M194.921,780.82h0C194.672,780.867,194.954,780.6,194.921,780.82Z" transform="translate(-75.673 -482.397)"/><path class="a" d="M189.378,785.177Z" transform="translate(-72.13 -484.753)"/><path class="a" d="M185.852,780.317Z" transform="translate(-69.603 -481.894)"/><path class="a" d="M138.555,779.16v1C138.729,780.085,138.838,779.029,138.555,779.16Z" transform="translate(-30.307 -481.736)"/><path class="a" d="M116.974,780.256c-.1-.226.174-.217,0,0C117.2,780.289,116.866,780.308,116.974,780.256Z" transform="translate(-18.725 -481.832)"/><path class="a" d="M91.455,753.311v0Z" transform="translate(-5.206 -467.887)"/></g></svg>